<?xml version="1.0" encoding="UTF-8" standalone="no"?>
<svg id="Capa_1" xmlns:rdf="http://www.w3.org/1999/02/22-rdf-syntax-ns#" xmlns="http://www.w3.org/2000/svg" xml:space="preserve" height="142" width="122.53" version="1.1" y="0px" x="0px" xmlns:cc="http://creativecommons.org/ns#" viewBox="0 0 122.52789 142" xmlns:dc="http://purl.org/dc/elements/1.1/"><metadata id="metadata47"><rdf:RDF><cc:Work rdf:about=""><dc:format>image/svg+xml</dc:format><dc:type rdf:resource="http://purl.org/dc/dcmitype/StillImage"/><dc:title/></cc:Work></rdf:RDF></metadata><g id="g3" fill="#1c9900" transform="matrix(.43084 0 0 .43084 -9.7361 0)"><path id="path5" d="m240.05 122.3c-4.143 0-7.5 3.357-7.5 7.5v95.899c0 18.398-14.968 33.367-33.366 33.367h-69.891c-18.398 0-33.366-14.969-33.366-33.367v-115.59h118.87c4.143 0 7.5-3.357 7.5-7.5s-3.357-7.5-7.5-7.5h-126.37c-4.143 0-7.5 3.357-7.5 7.5v123.09c0 13.745 5.772 26.159 15.009 34.973v44.381c0 13.532 11.009 24.542 24.541 24.542h0.345c13.532 0 24.541-11.01 24.541-24.542v-30.987h37.752v30.987c0 13.532 11.009 24.542 24.541 24.542h0.345c13.532 0 24.541-11.01 24.541-24.542v-44.381c9.236-8.814 15.009-21.229 15.009-34.973v-95.899c0-4.143-3.358-7.501-7.5-7.501zm-109.69 182.75c0 5.262-4.28 9.542-9.541 9.542h-0.345c-5.261 0-9.541-4.28-9.541-9.542v-34.616c5.665 2.333 11.861 3.629 18.357 3.629h1.069v30.987zm87.179 0c0 5.262-4.28 9.542-9.541 9.542h-0.345c-5.261 0-9.541-4.28-9.541-9.542v-30.987h1.069c6.496 0 12.693-1.296 18.357-3.629v34.616z"/><path id="path7" d="m240.78 2.196-19.6 19.604c-12.92-10.916-29.6-17.514-47.79-17.514h-18.297c-17.726 0-34.014 6.259-46.786 16.672l-18.757-18.762c-2.93-2.928-7.678-2.928-10.607 0-2.929 2.93-2.929 7.678 0 10.607l18.75 18.75c-10.467 12.789-16.759 29.12-16.759 46.896v0.673c0 4.143 3.357 7.5 7.5 7.5h151.62c4.143 0 7.5-3.357 7.5-7.5v-0.673c0-17.305-5.974-33.23-15.945-45.861l19.784-19.784c2.929-2.93 2.929-7.678 0-10.607s-7.677-2.929-10.607-0.001zm-144.46 69.426c1.468-12.725 6.996-24.227 15.242-33.19 0.769-0.359 1.492-0.848 2.127-1.482 0.629-0.629 1.115-1.346 1.474-2.107 10.532-9.651 24.551-15.556 39.929-15.556h18.297c30.314 0 55.377 22.916 58.771 52.336h-135.84z"/><path id="path9" d="m47.484 95.107h-0.344c-13.532 0-24.542 11.01-24.542 24.542v67.906c0 13.532 11.01 24.542 24.542 24.542h0.344c13.532 0 24.541-11.01 24.541-24.542v-67.906c0-13.532-11.009-24.542-24.541-24.542zm9.541 92.448c0 5.262-4.28 9.542-9.541 9.542h-0.344c-5.262 0-9.542-4.28-9.542-9.542v-67.906c0-5.262 4.28-9.542 9.542-9.542h0.344c5.261 0 9.541 4.28 9.541 9.542v67.906z"/><path id="path11" d="m282.45 95.107h-0.345c-13.532 0-24.541 11.01-24.541 24.542v67.906c0 13.532 11.009 24.542 24.541 24.542h0.345c13.532 0 24.541-11.01 24.541-24.542v-67.906c0-13.532-11.009-24.542-24.541-24.542zm9.541 92.448c0 5.262-4.28 9.542-9.541 9.542h-0.345c-5.261 0-9.541-4.28-9.541-9.542v-67.906c0-5.262 4.28-9.542 9.541-9.542h0.345c5.261 0 9.541 4.28 9.541 9.542v67.906z"/></g></svg>
