<?xml version="1.0" encoding="UTF-8" standalone="no"?>
<svg id="Capa_1" xmlns:rdf="http://www.w3.org/1999/02/22-rdf-syntax-ns#" xmlns="http://www.w3.org/2000/svg" xml:space="preserve" height="142" width="112.06" version="1.1" y="0px" x="0px" xmlns:cc="http://creativecommons.org/ns#" viewBox="0 0 112.05982 142" xmlns:dc="http://purl.org/dc/elements/1.1/"><metadata id="metadata44"><rdf:RDF><cc:Work rdf:about=""><dc:format>image/svg+xml</dc:format><dc:type rdf:resource="http://purl.org/dc/dcmitype/StillImage"/><dc:title/></cc:Work></rdf:RDF></metadata><g id="g3" fill="#165179" transform="matrix(.18311 0 0 .18311 -14.97 -.000039918)"><g id="apple" fill="#165179"><g id="g6" fill="#165179"><path id="path8" fill="#165179" d="m681.86 550.2c-56.177-18.165-93.932-69.643-93.932-128.08 0-51.975 29.384-98.495 76.71-121.36 4.288-2.076 7.53-5.85 8.92-10.395 1.406-4.563 0.841-9.486-1.526-13.62-1.938-3.362-48.647-82.302-149.39-82.302-42.129 0-87.688 13.877-135.55 41.254-19.915-11.905-68.477-37.274-120.5-37.274-27.651 0-52.489 7.17-73.828 21.304-15.524 8.646-167.62 100.88-88.168 347.65 2.333 5.523 57.772 135.41 123.59 184.16 5.197 4.7 26.776 22.299 58.63 22.299 19.555 0 39.058-6.518 57.979-19.366 6.004-2.453 31.871-12.367 59.488-12.367 17.839 0 32.729 4.134 44.479 12.487 1.252 0.858 30.979 20.928 65.681 20.928 22.574 0 42.78-8.543 58.493-24.718 8.525-7.394 81.771-73.006 119.87-176.66 0.841-2.281 1.063-6.363 0.892-8.782-0.515-7.016-5.198-12.986-11.837-15.147zm-131.84 175c-0.446 0.395-0.909 0.807-1.321 1.253-9.417 9.914-20.635 14.718-34.255 14.718-23.86 0-46.057-14.752-46.074-14.752-17.428-12.385-38.99-18.663-64.103-18.663-38.903 0-73.365 15.267-74.805 15.918-0.978 0.429-1.921 0.978-2.796 1.578-13.534 9.452-26.931 14.237-39.847 14.237-21.408 0-35.525-13.345-35.559-13.362-0.635-0.635-1.304-1.201-2.024-1.732-58.47-42.65-112.45-169-112.52-169-73.381-228.09 66.69-302.68 72.63-305.69 0.652-0.326 1.286-0.703 1.887-1.115 15.712-10.549 34.341-15.901 55.337-15.901 55.646 0 109.9 36.812 110.45 37.188 5.541 3.808 12.831 4.031 18.594 0.549 45.782-27.686 88.512-41.717 126.99-41.717 57.858 0 93.28 31.768 109.39 50.963-48.818 30.979-78.408 83.915-78.408 142.41 0 67.533 40.07 127.62 101.34 154.52-37.79 90.776-104.19 148-104.9 148.6zm-167.54-518.67c0.377 0 0.772-0.017 1.167-0.051 1.75-0.12 174-13.86 164.67-190.23-0.257-4.7-2.419-9.108-6.004-12.145-3.602-3.054-8.302-4.529-12.95-3.997-1.527 0.172-153.59 18.492-164 188.22-0.309 4.923 1.527 9.743 5.043 13.225 3.208 3.19 7.565 4.974 12.076 4.974zm131.69-168.26c-4.27 93.807-75.89 122.22-112.25 130.61 14.25-91.206 79.42-121.19 112.25-130.61z"/></g></g></g></svg>
